HIERARCHY
ROOT reference
{
  OFFSET 0 0 0
  CHANNELS 6 Xposition Yposition Zposition Zrotation Xrotation Yrotation
  JOINT Hips
  {
    OFFSET -4.64037 87.7643 21.1373
    CHANNELS 6 Xposition Yposition Zposition Zrotation Xrotation Yrotation
    JOINT Spine
    {
      OFFSET 0 7.86299 0
      CHANNELS 6 Xposition Yposition Zposition Zrotation Xrotation Yrotation
      JOINT Spine1
      {
        OFFSET 0 22.6654 0
        CHANNELS 6 Xposition Yposition Zposition Zrotation Xrotation Yrotation
        JOINT Neck
        {
          OFFSET 0 22.5723 2.05203
          CHANNELS 6 Xposition Yposition Zposition Zrotation Xrotation Yrotation
          JOINT Head
          {
            OFFSET 0 13.4246 -1.9178
            CHANNELS 6 Xposition Yposition Zposition Zrotation Xrotation Yrotation
            End Site
            {
              OFFSET 0 23.9725 0
            }
          }
        }
        JOINT LeftShoulder
        {
          OFFSET 3.7941 20.1358 -0.319195
          CHANNELS 6 Xposition Yposition Zposition Zrotation Xrotation Yrotation
          JOINT LeftArm
          {
            OFFSET 12.7665 0 0
            CHANNELS 6 Xposition Yposition Zposition Zrotation Xrotation Yrotation
            JOINT LeftForeArm
            {
              OFFSET 28.396 0 0
              CHANNELS 6 Xposition Yposition Zposition Zrotation Xrotation Yrotation
              JOINT LeftHand
              {
                OFFSET 28.7929 0 0
                CHANNELS 6 Xposition Yposition Zposition Zrotation Xrotation Yrotation
                End Site
                {
                  OFFSET 14.3835 0 0
                }
              }
            }
          }
        }
        JOINT RightShoulder
        {
          OFFSET -3.85764 20.1358 -0.319195
          CHANNELS 6 Xposition Yposition Zposition Zrotation Xrotation Yrotation
          JOINT RightArm
          {
            OFFSET -12.7665 0 0
            CHANNELS 6 Xposition Yposition Zposition Zrotation Xrotation Yrotation
            JOINT RightForeArm
            {
              OFFSET -28.396 0 0
              CHANNELS 6 Xposition Yposition Zposition Zrotation Xrotation Yrotation
              JOINT RightHand
              {
                OFFSET -28.7929 0 0
                CHANNELS 6 Xposition Yposition Zposition Zrotation Xrotation Yrotation
                End Site
                {
                  OFFSET -14.3835 0 0
                }
              }
            }
          }
        }
      }
    }
    JOINT LeftUpLeg
    {
      OFFSET 9.58901 0 0
      CHANNELS 6 Xposition Yposition Zposition Zrotation Xrotation Yrotation
      JOINT LeftLeg
      {
        OFFSET 0 -41.7092 0
        CHANNELS 6 Xposition Yposition Zposition Zrotation Xrotation Yrotation
        JOINT LeftFoot
        {
          OFFSET 0 -41.5308 0
          CHANNELS 6 Xposition Yposition Zposition Zrotation Xrotation Yrotation
          JOINT LeftToeBase
          {
            OFFSET 0 -6.23286 14.3835
            CHANNELS 6 Xposition Yposition Zposition Zrotation Xrotation Yrotation
            End Site
            {
              OFFSET 0 0 3.8356
            }
          }
        }
      }
    }
    JOINT RightUpLeg
    {
      OFFSET -9.58901 0 0
      CHANNELS 6 Xposition Yposition Zposition Zrotation Xrotation Yrotation
      JOINT RightLeg
      {
        OFFSET 0 -41.7092 0
        CHANNELS 6 Xposition Yposition Zposition Zrotation Xrotation Yrotation
        JOINT RightFoot
        {
          OFFSET 0 -41.5308 0
          CHANNELS 6 Xposition Yposition Zposition Zrotation Xrotation Yrotation
          JOINT RightToeBase
          {
            OFFSET 0 -6.23286 14.3835
            CHANNELS 6 Xposition Yposition Zposition Zrotation Xrotation Yrotation
            End Site
            {
              OFFSET 0 0 3.8356
            }
          }
        }
      }
    }
  }
}
MOTION
Frames:	7
Frame Time:	0.004
0 0 0 0 0 -0 2.13459 80.7144 -108.367 1.04553 -10.5633 -2.40252 1.77636e-015 7.86299 0 -0.726296 3.75325 2.04867 -4.44089e-016 22.6654 0 -0.51629 5.01206 2.04748 0 22.5723 2.05203 4.5041 32.5715 -2.96671 8.88178e-016 13.4246 -1.9178 3.3729 0.390282 -1.88689 3.7941 20.1358 -0.319195 -18.1106 35.1851 5.31685 12.7665 0 0 -18.5239 29.795 -38.1649 28.396 7.10543e-015 0 -1.0475 -12.5785 -32.8478 28.7929 0 0 15.1273 -11.5502 10.2267 -3.85764 20.1358 -0.319195 10.363 48.005 11.738 -12.7665 0 0 13.0446 33.3128 34.6803 -28.396 0 -1.42109e-014 -0.0323305 -23.529 32.9257 -28.7929 7.10543e-015 0 -29.2198 -18.3078 -21.1574 9.58901 -2.84217e-014 0 8.92878 -7.85879 2.3797 0 -41.7092 1.42109e-014 -24.4236 38.0858 10.5981 0 -41.5308 1.42109e-014 22.1584 -26.9001 34.7252 0 -6.23286 14.3835 -2.38542e-015 0 -3.18055e-015 -9.58901 0 0 -21.0429 -8.33864 3.28227 0 -41.7092 1.42109e-014 12.4277 64.4219 -10.4651 0 -41.5308 0 5.28816 -7.60197 -6.94242 0 -6.23286 14.3835 3.18055e-015 6.36111e-015 3.18055e-015 
0 0 0 0 0 -0 2.20346 80.7165 -108.193 1.00537 -10.5878 -2.27009 8.88178e-016 7.86299 -1.42109e-014 -0.775898 3.801 1.98348 0 22.6654 0 -0.497427 4.99068 1.97942 8.88178e-016 22.5723 2.05203 4.61375 32.4863 -2.99008 0 13.4246 -1.9178 3.38381 0.472855 -1.89838 3.7941 20.1358 -0.319195 -18.0695 35.1891 5.27772 12.7665 -7.10543e-015 -2.84217e-014 -18.6032 29.7545 -38.1297 28.396 1.42109e-014 0 -0.992848 -12.4793 -32.7476 28.7929 -7.10543e-015 0 15.0235 -11.4519 10.1594 -3.85764 20.1358 -0.319195 10.4056 48.0126 11.7092 -12.7665 0 0 13.0198 33.2727 34.6835 -28.396 0 0 -0.108274 -23.6025 33.0452 -28.7929 -1.42109e-014 -7.10543e-015 -29.463 -18.285 -21.2787 9.58901 -2.84217e-014 0 8.92532 -7.73723 2.34553 0 -41.7092 -1.42109e-014 -24.4134 38.1157 10.5343 3.55271e-015 -41.5308 1.42109e-014 22.1884 -27.0258 34.7322 1.42109e-014 -6.23286 14.3835 7.95139e-016 -2.38542e-015 -0 -9.58901 0 -1.42109e-014 -20.9846 -8.72468 2.93578 -7.10543e-015 -41.7092 -1.42109e-014 12.7131 64.6368 -10.6419 0 -41.5308 0 5.46726 -8.32502 -6.76135 0 -6.23286 14.3835 0 9.54166e-015 -0 
0 0 0 0 0 -0 2.27304 80.7182 -108.016 0.974956 -10.6243 -2.16158 0 7.86299 0 -0.818498 3.83179 1.92149 -2.22045e-016 22.6654 0 -0.510526 5.05201 1.91667 0 22.5723 2.05203 4.70468 32.3625 -3.03858 0 13.4246 -1.9178 3.38169 0.491936 -1.94118 3.7941 20.1358 -0.319195 -18.0231 35.155 5.30813 12.7665 7.10543e-015 0 -18.5579 29.7787 -38.2063 28.396 7.10543e-015 0 -0.975265 -12.4416 -32.6723 28.7929 7.10543e-015 7.10543e-015 14.857 -11.4308 10.1004 -3.85764 20.1358 -0.319195 10.4081 47.9545 11.7079 -12.7665 0 0 13.0317 33.2159 34.6944 -28.396 0 1.42109e-014 -0.26432 -23.5526 33.0882 -28.7929 1.42109e-014 0 -29.3172 -18.2431 -21.1777 9.58901 -1.42109e-014 0 8.9061 -7.59345 2.34154 0 -41.7092 0 -24.3915 38.1474 10.4925 3.55271e-015 -41.5308 1.42109e-014 22.2415 -27.1527 34.7415 0 -6.23286 14.3835 3.97569e-016 -1.59028e-015 -6.36111e-015 -9.58901 -1.42109e-014 0 -20.9357 -9.1288 2.48683 7.10543e-015 -41.7092 0 12.7567 64.8888 -10.6695 -7.10543e-015 -41.5308 0 5.72621 -9.01631 -6.51613 0 -6.23286 14.3835 3.18055e-015 -3.18055e-015 -0 
0 0 0 0 0 -0 2.33696 80.7203 -107.83 0.931079 -10.6561 -2.04561 4.44089e-016 7.86299 0 -0.868635 3.86468 1.87909 0 22.6654 -1.42109e-014 -0.487687 5.05648 1.87133 8.88178e-016 22.5723 2.05203 4.776 32.3617 -3.12911 0 13.4246 -1.9178 3.46105 0.422597 -2.01095 3.7941 20.1358 -0.319195 -17.9926 35.228 5.28748 12.7665 7.10543e-015 -2.84217e-014 -18.5555 29.697 -38.2686 28.396 -7.10543e-015 0 -1.06671 -12.4581 -32.5855 28.7929 0 1.42109e-014 15.033 -11.4503 10.1535 -3.85764 20.1358 -0.319195 10.5078 47.9103 11.6205 -12.7665 0 0 13.0216 33.1817 34.6722 -28.396 0 0 -0.324449 -23.5746 33.184 -28.7929 7.10543e-015 0 -29.3912 -18.2344 -21.1783 9.58901 0 -1.42109e-014 8.90318 -7.45202 2.35359 0 -41.7092 0 -24.3417 38.1928 10.403 0 -41.5308 1.42109e-014 22.2905 -27.2837 34.7386 0 -6.23286 14.3835 -2.78299e-015 7.95139e-016 -6.36111e-015 -9.58901 0 -1.42109e-014 -20.8611 -9.49612 2.21635 0 -41.7092 1.42109e-014 13.1736 65.0548 -11.0143 0 -41.5308 0 5.98588 -9.77552 -6.43027 0 -6.23286 14.3835 -3.53113e-031 -6.36111e-015 -3.18055e-015 
0 0 0 0 0 -0 2.3995 80.7251 -107.653 0.899118 -10.6858 -1.94987 0 7.86299 0 -0.924993 3.91825 1.82592 0 22.6654 -1.42109e-014 -0.479205 5.04265 1.8154 0 22.5723 2.05203 4.51215 32.3462 -3.09058 -1.77636e-015 13.4246 -1.9178 4.03344 0.401868 -1.93343 3.7941 20.1358 -0.319195 -17.9883 35.1884 5.28484 12.7665 7.10543e-015 0 -18.5805 29.7001 -38.2363 28.396 7.10543e-015 0 -1.02156 -12.3638 -32.4451 28.7929 7.10543e-015 -7.10543e-015 14.792 -11.3819 10.0037 -3.85764 20.1358 -0.319195 10.5499 47.8723 11.6003 -12.7665 -1.42109e-014 0 13.0559 33.1209 34.6452 -28.396 -1.42109e-014 1.42109e-014 -0.154966 -23.7569 33.4295 -28.7929 0 -7.10543e-015 -30.348 -18.1873 -21.557 9.58901 0 -1.42109e-014 8.89766 -7.30231 2.32751 -3.55271e-015 -41.7092 -1.42109e-014 -24.3438 38.1948 10.3284 -3.55271e-015 -41.5308 0 22.3914 -27.3719 34.8063 1.42109e-014 -6.23286 14.3835 1.59028e-015 0 3.18055e-015 -9.58901 -1.42109e-014 0 -20.7993 -9.88506 1.96705 7.10543e-015 -41.7092 -1.42109e-014 13.6478 65.1734 -11.4577 0 -41.5308 0 6.0186 -10.5152 -6.40284 0 -6.23286 14.3835 1.59028e-015 0 3.18055e-015 
0 0 0 0 0 -0 2.45775 80.7284 -107.483 0.860036 -10.7092 -1.85287 4.44089e-016 7.86299 1.42109e-014 -0.977445 3.96386 1.78452 -2.22045e-016 22.6654 1.42109e-014 -0.472844 5.03938 1.77153 0 22.5723 2.05203 4.70156 32.2317 -3.13929 -1.77636e-015 13.4246 -1.9178 3.93941 0.498229 -1.97589 3.7941 20.1358 -0.319195 -17.9295 35.1509 5.2334 12.7665 0 0 -18.5961 29.7723 -38.2122 28.396 0 1.42109e-014 -1.02521 -12.2906 -32.3727 28.7929 -7.10543e-015 7.10543e-015 14.8472 -11.2902 10.1104 -3.85764 20.1358 -0.319195 10.616 47.8552 11.5694 -12.7665 1.42109e-014 0 13.0738 33.0432 34.6122 -28.396 0 -1.42109e-014 -0.346965 -23.6791 33.4182 -28.7929 0 7.10543e-015 -30.055 -18.1657 -21.3424 9.58901 0 0 8.89535 -7.16618 2.32272 0 -41.7092 1.42109e-014 -24.3131 38.2064 10.2506 3.55271e-015 -41.5308 0 22.4676 -27.4762 34.8425 -1.42109e-014 -6.23286 14.3835 7.95139e-016 3.18055e-015 3.18055e-015 -9.58901 -1.42109e-014 1.42109e-014 -20.7191 -10.2795 1.63528 0 -41.7092 0 13.9305 65.3221 -11.7272 0 -41.5308 1.42109e-014 6.10385 -11.2705 -6.39486 -7.10543e-015 -6.23286 14.3835 7.06225e-031 -6.36111e-015 6.36111e-015 
0 0 0 0 0 -0 2.522 80.7313 -107.297 0.829938 -10.7464 -1.74592 4.44089e-016 7.86299 0 -1.03298 3.99816 1.7387 4.44089e-016 22.6654 0 -0.450358 5.05756 1.72259 0 22.5723 2.05203 4.75609 32.2028 -3.19471 0 13.4246 -1.9178 4.00763 0.469337 -2.01588 3.7941 20.1358 -0.319195 -17.9267 35.1655 5.22612 12.7665 -7.10543e-015 -2.84217e-014 -18.6011 29.7164 -38.2234 28.396 0 0 -1.10023 -12.298 -32.2832 28.7929 0 0 14.6579 -11.3422 10.0516 -3.85764 20.1358 -0.319195 10.6749 47.8024 11.5223 -12.7665 -1.42109e-014 0 13.2366 32.8263 34.5173 -28.396 -1.42109e-014 0 -0.280991 -23.6603 33.5543 -28.7929 7.10543e-015 0 -30.341 -18.0929 -21.4049 9.58901 -1.42109e-014 0 8.87329 -7.0081 2.32311 3.55271e-015 -41.7092 0 -24.2622 38.2316 10.1737 0 -41.5308 0 22.5143 -27.6049 34.8494 0 -6.23286 14.3835 1.19271e-015 -1.59028e-015 -0 -9.58901 0 0 -20.6665 -10.646 1.3226 0 -41.7092 1.42109e-014 14.3113 65.397 -12.0163 0 -41.5308 0 6.17241 -12.0959 -6.5494 0 -6.23286 14.3835 1.59028e-015 3.18055e-015 -0 
